<?xml version="1.0" encoding="UTF-8" standalone="no"?><svg xmlns="http://www.w3.org/2000/svg" xmlns:xlink="http://www.w3.org/1999/xlink" clip-rule="evenodd" stroke-miterlimit="4.00" viewBox="0 0 1024 768"><desc>SVG generated by Keynote</desc><defs></defs><g transform="matrix(1.00, 0.00, -0.00, -1.00, 0.0, 768.0)"><g><clipPath id="clip-407"><path d="M 0.0 768.0 L 1024.0 768.0 L 1024.0 0.0 L 0.0 0.0 Z M 0.0 768.0 "></path></clipPath><g clip-path="url(#clip-407)"><image xlink:href="../../94B19213-1839-4ACA-AF95-0F4D5E1D33E8/assets/2CA05975C404A6B79EB2D17D5C3EEC1C.jpeg" width="1024.00" height="768.00" transform="matrix(1.00, 0.00, -0.00, -1.00, 0.0, 768.0)"></image></g></g><g><clipPath id="clip-408"><path d="M 0.0 768.0 L 1024.0 768.0 L 1024.0 0.0 L 0.0 0.0 Z M 0.0 768.0 "></path></clipPath><g clip-path="url(#clip-408)"><image xlink:href="../../CA0EBA44-7219-4D9C-89C2-76ADB89719F8/assets/1DECAC1220CDFD844A3B8F6D0E4D0069.png" width="445.00" height="541.00" transform="matrix(1.42, 0.00, -0.00, -1.42, 196.0, 768.0)"></image></g></g><path d="M 14.8 0.0 L 16.8 0.0 L 77.4 0.0 " fill="none" stroke="#198F00" stroke-width="4.00" transform="matrix(1.00, 0.00, 0.00, -1.00, 644.6, 244.0)"></path><path d="M 661.4 252.4 L 644.6 244.0 L 661.4 235.6 Z M 661.4 252.4 " fill="#198F00"></path><image xlink:href="../../185FF0B3-A969-450C-894B-301D803C5623/assets/A93777E15AB9BF98B2FCD9CBB078E1E5.png" width="448.00" height="147.00" transform="matrix(1.00, 0.00, -0.00, -1.00, 288.0, 521.3)" opacity="0.50"></image><path d="M 292.0 519.3 L 732.0 519.3 L 732.0 380.2 L 292.0 380.2 Z M 292.0 519.3 " fill="#00F933" fill-opacity="0.26"></path><path d="M 8.0 0.0 C 29.8 29.0 41.1 64.5 40.0 100.7 C 38.8 137.9 24.7 173.6 0.0 201.4 " fill="none" stroke="#008300" stroke-width="2.00" transform="matrix(1.00, 0.00, 0.00, -1.00, 722.1, 447.2)"></path></g></svg>