<?xml version="1.0" encoding="UTF-8" standalone="no"?><svg xmlns="http://www.w3.org/2000/svg" xmlns:xlink="http://www.w3.org/1999/xlink" clip-rule="evenodd" stroke-miterlimit="4.00" viewBox="0 0 1024 768"><desc>SVG generated by Keynote</desc><defs></defs><g transform="matrix(1.00, 0.00, -0.00, -1.00, 0.0, 768.0)"><g><clipPath id="clip-417"><path d="M 0.0 768.0 L 1024.0 768.0 L 1024.0 0.0 L 0.0 0.0 Z M 0.0 768.0 "></path></clipPath><g clip-path="url(#clip-417)"><image xlink:href="../../94B19213-1839-4ACA-AF95-0F4D5E1D33E8/assets/2CA05975C404A6B79EB2D17D5C3EEC1C.jpeg" width="1024.00" height="768.00" transform="matrix(1.00, 0.00, -0.00, -1.00, 0.0, 768.0)"></image></g></g><image xlink:href="../../718FC23E-A20E-427D-9F80-B01CCAC6D9FF/assets/FD02336E4F3EF953D75476F6269C9BEB.png" width="1058.00" height="600.00" transform="matrix(1.00, 0.00, -0.00, -1.00, -16.8, 750.2)" opacity="0.70"></image><g><clipPath id="clip-418"><path d="M 3.0 740.0 L 1021.0 740.0 L 1021.0 180.0 L 3.0 180.0 Z M 3.2 740.2 "></path></clipPath><g clip-path="url(#clip-418)"><image xlink:href="../../718FC23E-A20E-427D-9F80-B01CCAC6D9FF/assets/E1A04B215328D6484C0F83CEF722BF14.png" width="960.00" height="434.00" transform="matrix(1.06, 0.00, -0.00, -1.06, 3.0, 690.0)"></image></g></g><image xlink:href="../../E8384BD4-9672-41FF-B1D4-CF7F9C644D93/assets/4C889F115EA6339D1B1000EC5AF452AB.png" width="488.00" height="67.00" transform="matrix(1.00, 0.00, -0.00, -1.00, 268.0, 115.0)"></image><text xml:space="preserve" font-family="HelveticaNeue-Bold" font-weight="bold" font-size="64.0" fill="#FEFFFE" transform="matrix(1.00, 0.00, -0.00, -1.00, 268.0, 67.0)">D</text><text xml:space="preserve" font-family="HelveticaNeue-Bold" font-weight="bold" font-size="64.0" fill="#FEFFFE" transform="matrix(1.00, 0.00, -0.00, -1.00, 315.4, 67.0)">o</text><text xml:space="preserve" font-family="HelveticaNeue-Bold" font-weight="bold" font-size="64.0" fill="#FEFFFE" transform="matrix(1.00, 0.00, -0.00, -1.00, 354.5, 67.0)">i</text><text xml:space="preserve" font-family="HelveticaNeue-Bold" font-weight="bold" font-size="64.0" fill="#FEFFFE" transform="matrix(1.00, 0.00, -0.00, -1.00, 371.0, 67.0)">n</text><text xml:space="preserve" font-family="HelveticaNeue-Bold" font-weight="bold" font-size="64.0" fill="#FEFFFE" transform="matrix(1.00, 0.00, -0.00, -1.00, 409.0, 67.0)">g</text><text xml:space="preserve" font-family="HelveticaNeue-Bold" font-weight="bold" font-size="64.0" fill="#FEFFFE" transform="matrix(1.00, 0.00, -0.00, -1.00, 448.1, 67.0)"> </text><text xml:space="preserve" font-family="HelveticaNeue-Bold" font-weight="bold" font-size="64.0" fill="#FEFFFE" transform="matrix(1.00, 0.00, -0.00, -1.00, 465.9, 67.0)">t</text><text xml:space="preserve" font-family="HelveticaNeue-Bold" font-weight="bold" font-size="64.0" fill="#FEFFFE" transform="matrix(1.00, 0.00, -0.00, -1.00, 488.4, 67.0)">o</text><text xml:space="preserve" font-family="HelveticaNeue-Bold" font-weight="bold" font-size="64.0" fill="#FEFFFE" transform="matrix(1.00, 0.00, -0.00, -1.00, 527.5, 67.0)">o</text><text xml:space="preserve" font-family="HelveticaNeue-Bold" font-weight="bold" font-size="64.0" fill="#FEFFFE" transform="matrix(1.00, 0.00, -0.00, -1.00, 566.6, 67.0)"> </text><text xml:space="preserve" font-family="HelveticaNeue-Bold" font-weight="bold" font-size="64.0" fill="#FEFFFE" transform="matrix(1.00, 0.00, -0.00, -1.00, 584.4, 67.0)">m</text><text xml:space="preserve" font-family="HelveticaNeue-Bold" font-weight="bold" font-size="64.0" fill="#FEFFFE" transform="matrix(1.00, 0.00, -0.00, -1.00, 642.4, 67.0)">u</text><text xml:space="preserve" font-family="HelveticaNeue-Bold" font-weight="bold" font-size="64.0" fill="#FEFFFE" transform="matrix(1.00, 0.00, -0.00, -1.00, 680.4, 67.0)">c</text><text xml:space="preserve" font-family="HelveticaNeue-Bold" font-weight="bold" font-size="64.0" fill="#FEFFFE" transform="matrix(1.00, 0.00, -0.00, -1.00, 717.1, 67.0)">h</text><path d="M 14.8 0.0 L 16.8 0.0 L 77.4 0.0 " fill="none" stroke="#D31D03" stroke-width="4.00" transform="matrix(1.00, 0.00, 0.00, -1.00, 716.6, 365.3)"></path><path d="M 733.4 373.7 L 716.6 365.3 L 733.4 356.9 Z M 733.4 373.7 " fill="#D31D03"></path><path d="M 14.8 0.0 L 16.8 0.0 L 77.4 0.0 " fill="none" stroke="#D31D03" stroke-width="4.00" transform="matrix(1.00, 0.00, 0.00, -1.00, 619.9, 336.7)"></path><path d="M 636.7 345.1 L 619.9 336.7 L 636.7 328.3 Z M 636.7 345.1 " fill="#D31D03"></path><path d="M 14.8 0.0 L 16.8 0.0 L 77.4 0.0 " fill="none" stroke="#D31D03" stroke-width="4.00" transform="matrix(1.00, 0.00, 0.00, -1.00, 904.6, 308.0)"></path><path d="M 921.4 316.4 L 904.6 308.0 L 921.4 299.6 Z M 921.4 316.4 " fill="#D31D03"></path><path d="M 14.8 0.0 L 16.8 0.0 L 77.4 0.0 " fill="none" stroke="#D31D03" stroke-width="4.00" transform="matrix(1.00, 0.00, 0.00, -1.00, 729.2, 279.3)"></path><path d="M 746.0 287.7 L 729.2 279.3 L 746.0 270.9 Z M 746.0 287.7 " fill="#D31D03"></path></g></svg>