<?xml version="1.0" encoding="UTF-8" standalone="no"?><svg xmlns="http://www.w3.org/2000/svg" xmlns:xlink="http://www.w3.org/1999/xlink" clip-rule="evenodd" stroke-miterlimit="4.00" viewBox="0 0 1024 768"><desc>SVG generated by Keynote</desc><defs></defs><g transform="matrix(1.00, 0.00, -0.00, -1.00, 0.0, 768.0)"><g><clipPath id="clip-369"><path d="M 0.0 768.0 L 1024.0 768.0 L 1024.0 0.0 L 0.0 0.0 Z M 0.0 768.0 "></path></clipPath><g clip-path="url(#clip-369)"><image xlink:href="../../94B19213-1839-4ACA-AF95-0F4D5E1D33E8/assets/2CA05975C404A6B79EB2D17D5C3EEC1C.jpeg" width="1024.00" height="768.00" transform="matrix(1.00, 0.00, -0.00, -1.00, 0.0, 768.0)"></image></g></g><g><clipPath id="clip-370"><path d="M 0.0 768.0 L 1024.0 768.0 L 1024.0 0.0 L 0.0 0.0 Z M 0.0 768.0 "></path></clipPath><g clip-path="url(#clip-370)"><image xlink:href="../../6A631CD7-1475-4019-A88F-6793F000FD4F/assets/DA9E97D14E7129119B3D5F6DC23A8FDE.png" width="840.00" height="540.00" transform="matrix(1.22, 0.00, -0.00, -1.22, 0.0, 713.0)"></image></g></g><path d="M 14.8 0.0 L 16.8 0.0 L 77.4 0.0 " fill="none" stroke="#198F00" stroke-width="4.00" transform="matrix(1.00, 0.00, 0.00, -1.00, 581.2, 454.1)"></path><path d="M 598.0 462.5 L 581.2 454.1 L 598.0 445.7 Z M 598.0 462.5 " fill="#198F00"></path></g></svg>