<?xml version="1.0" encoding="UTF-8" standalone="no"?><svg xmlns="http://www.w3.org/2000/svg" xmlns:xlink="http://www.w3.org/1999/xlink" clip-rule="evenodd" stroke-miterlimit="4.00" viewBox="0 0 1024 768"><desc>SVG generated by Keynote</desc><defs></defs><g transform="matrix(1.00, 0.00, -0.00, -1.00, 0.0, 768.0)"><g><clipPath id="clip-395"><path d="M 0.0 768.0 L 1024.0 768.0 L 1024.0 0.0 L 0.0 0.0 Z M 0.0 768.0 "></path></clipPath><g clip-path="url(#clip-395)"><image xlink:href="../../94B19213-1839-4ACA-AF95-0F4D5E1D33E8/assets/2CA05975C404A6B79EB2D17D5C3EEC1C.jpeg" width="1024.00" height="768.00" transform="matrix(1.00, 0.00, -0.00, -1.00, 0.0, 768.0)"></image></g></g><g><clipPath id="clip-396"><path d="M 0.0 768.0 L 1024.0 768.0 L 1024.0 0.0 L 0.0 0.0 Z M 0.0 768.0 "></path></clipPath><g clip-path="url(#clip-396)"><image xlink:href="../../CA0EBA44-7219-4D9C-89C2-76ADB89719F8/assets/1DECAC1220CDFD844A3B8F6D0E4D0069.png" width="445.00" height="541.00" transform="matrix(1.42, 0.00, -0.00, -1.42, 196.0, 768.0)"></image></g></g><image xlink:href="../../185FF0B3-A969-450C-894B-301D803C5623/assets/3284D816C7CBD2B10A920CBD61FAA38E.png" width="448.00" height="71.00" transform="matrix(1.00, 0.00, -0.00, -1.00, 288.0, 598.0)" opacity="0.50"></image><path d="M 292.0 596.0 L 732.0 596.0 L 732.0 533.3 L 292.0 533.3 Z M 292.0 596.0 " fill="#00F933" fill-opacity="0.26"></path><path d="M 14.8 0.0 L 16.8 0.0 L 77.4 0.0 " fill="none" stroke="#198F00" stroke-width="4.00" transform="matrix(1.00, 0.00, 0.00, -1.00, 694.6, 167.3)"></path><path d="M 711.4 175.7 L 694.6 167.3 L 711.4 158.9 Z M 711.4 175.7 " fill="#198F00"></path><path d="M 0.0 0.0 C 31.4 61.3 50.4 128.2 55.7 196.9 C 60.6 259.1 54.2 321.8 36.9 381.7 " fill="none" stroke="#008300" stroke-width="2.00" transform="matrix(1.00, 0.00, 0.00, -1.00, 733.6, 551.4)"></path></g></svg>